<?xml version="1.0" encoding="UTF-8" standalone="no"?>
<!-- Created with Inkscape (http://www.inkscape.org/) -->

<svg
   xmlns:dc="http://purl.org/dc/elements/1.1/"
   xmlns:cc="http://creativecommons.org/ns#"
   xmlns:rdf="http://www.w3.org/1999/02/22-rdf-syntax-ns#"
   xmlns:svg="http://www.w3.org/2000/svg"
   xmlns="http://www.w3.org/2000/svg"
   xmlns:sodipodi="http://sodipodi.sourceforge.net/DTD/sodipodi-0.dtd"
   xmlns:inkscape="http://www.inkscape.org/namespaces/inkscape"
   width="744.09448819"
   height="1052.3622047"
   id="svg9589"
   version="1.1"
   inkscape:version="0.48.0 r9654"
   sodipodi:docname="ears.svg"
   inkscape:export-filename="/media/data/code/dolphin_repo/dolphin/docs/img/ears.png"
   inkscape:export-xdpi="955.02588"
   inkscape:export-ydpi="955.02588">
  <defs
     id="defs9591">
    <marker
       inkscape:stockid="Arrow1Lend"
       orient="auto"
       refY="0.0"
       refX="0.0"
       id="Arrow1Lend"
       style="overflow:visible;">
      <path
         id="path5466"
         d="M 0.0,0.0 L 5.0,-5.0 L -12.5,0.0 L 5.0,5.0 L 0.0,0.0 z "
         style="fill-rule:evenodd;stroke:#000000;stroke-width:1.0pt;marker-start:none;"
         transform="scale(0.8) rotate(180) translate(12.5,0)" />
    </marker>
    <marker
       inkscape:stockid="Arrow1Mend"
       orient="auto"
       refY="0.0"
       refX="0.0"
       id="Arrow1Mend"
       style="overflow:visible;">
      <path
         id="path5472"
         d="M 0.0,0.0 L 5.0,-5.0 L -12.5,0.0 L 5.0,5.0 L 0.0,0.0 z "
         style="fill-rule:evenodd;stroke:#000000;stroke-width:1.0pt;marker-start:none;"
         transform="scale(0.4) rotate(180) translate(10,0)" />
    </marker>
    <marker
       inkscape:stockid="Arrow1Sstart"
       orient="auto"
       refY="0.0"
       refX="0.0"
       id="Arrow1Sstart"
       style="overflow:visible">
      <path
         id="path5475"
         d="M 0.0,0.0 L 5.0,-5.0 L -12.5,0.0 L 5.0,5.0 L 0.0,0.0 z "
         style="fill-rule:evenodd;stroke:#000000;stroke-width:1.0pt;marker-start:none"
         transform="scale(0.2) translate(6,0)" />
    </marker>
    <marker
       inkscape:stockid="Tail"
       orient="auto"
       refY="0.0"
       refX="0.0"
       id="Tail"
       style="overflow:visible">
      <g
         id="g5499"
         transform="scale(-1.2)">
        <path
           id="path5501"
           d="M -3.8048674,-3.9585227 L 0.54352094,0"
           style="fill:none;fill-rule:evenodd;stroke:#000000;stroke-width:0.8;marker-start:none;marker-end:none;stroke-linecap:round" />
        <path
           id="path5503"
           d="M -1.2866832,-3.9585227 L 3.0617053,0"
           style="fill:none;fill-rule:evenodd;stroke:#000000;stroke-width:0.8;marker-start:none;marker-end:none;stroke-linecap:round" />
        <path
           id="path5505"
           d="M 1.3053582,-3.9585227 L 5.6537466,0"
           style="fill:none;fill-rule:evenodd;stroke:#000000;stroke-width:0.8;marker-start:none;marker-end:none;stroke-linecap:round" />
        <path
           id="path5507"
           d="M -3.8048674,4.1775838 L 0.54352094,0.21974226"
           style="fill:none;fill-rule:evenodd;stroke:#000000;stroke-width:0.8;marker-start:none;marker-end:none;stroke-linecap:round" />
        <path
           id="path5509"
           d="M -1.2866832,4.1775838 L 3.0617053,0.21974226"
           style="fill:none;fill-rule:evenodd;stroke:#000000;stroke-width:0.8;marker-start:none;marker-end:none;stroke-linecap:round" />
        <path
           id="path5511"
           d="M 1.3053582,4.1775838 L 5.6537466,0.21974226"
           style="fill:none;fill-rule:evenodd;stroke:#000000;stroke-width:0.8;marker-start:none;marker-end:none;stroke-linecap:round" />
      </g>
    </marker>
    <marker
       inkscape:stockid="TriangleInL"
       orient="auto"
       refY="0.0"
       refX="0.0"
       id="TriangleInL"
       style="overflow:visible">
      <path
         id="path5597"
         d="M 5.77,0.0 L -2.88,5.0 L -2.88,-5.0 L 5.77,0.0 z "
         style="fill-rule:evenodd;stroke:#000000;stroke-width:1.0pt;marker-start:none"
         transform="scale(-0.8)" />
    </marker>
    <marker
       inkscape:stockid="Arrow2Lstart"
       orient="auto"
       refY="0.0"
       refX="0.0"
       id="Arrow2Lstart"
       style="overflow:visible">
      <path
         id="path5481"
         style="font-size:12.0;fill-rule:evenodd;stroke-width:0.62500000;stroke-linejoin:round"
         d="M 8.7185878,4.0337352 L -2.2072895,0.016013256 L 8.7185884,-4.0017078 C 6.9730900,-1.6296469 6.9831476,1.6157441 8.7185878,4.0337352 z "
         transform="scale(1.1) translate(1,0)" />
    </marker>
    <marker
       inkscape:stockid="Arrow1Lstart"
       orient="auto"
       refY="0.0"
       refX="0.0"
       id="Arrow1Lstart"
       style="overflow:visible">
      <path
         id="path5463"
         d="M 0.0,0.0 L 5.0,-5.0 L -12.5,0.0 L 5.0,5.0 L 0.0,0.0 z "
         style="fill-rule:evenodd;stroke:#000000;stroke-width:1.0pt;marker-start:none"
         transform="scale(0.8) translate(12.5,0)" />
    </marker>
  </defs>
  <sodipodi:namedview
     id="base"
     pagecolor="#ffffff"
     bordercolor="#666666"
     borderopacity="1.0"
     inkscape:pageopacity="0.0"
     inkscape:pageshadow="2"
     inkscape:zoom="7.3347703"
     inkscape:cx="373.63494"
     inkscape:cy="483.2147"
     inkscape:document-units="px"
     inkscape:current-layer="layer1"
     showgrid="false"
     showguides="true"
     inkscape:window-width="1280"
     inkscape:window-height="947"
     inkscape:window-x="0"
     inkscape:window-y="25"
     inkscape:window-maximized="1">
    <inkscape:grid
       type="xygrid"
       id="grid9650" />
  </sodipodi:namedview>
  <metadata
     id="metadata9594">
    <rdf:RDF>
      <cc:Work
         rdf:about="">
        <dc:format>image/svg+xml</dc:format>
        <dc:type
           rdf:resource="http://purl.org/dc/dcmitype/StillImage" />
        <dc:title></dc:title>
      </cc:Work>
    </rdf:RDF>
  </metadata>
  <g
     inkscape:groupmode="layer"
     id="layer6"
     inkscape:label="Layer"
     style="display:inline">
    <path
       transform="matrix(1.6,0,0,1.6,-245,-284.41731)"
       sodipodi:type="arc"
       style="fill:#cccccc;stroke:#000000;stroke-width:0.31250000000000000;stroke-linecap:round;stroke-linejoin:round;stroke-miterlimit:4;stroke-opacity:1;stroke-dasharray:none;stroke-dashoffset:0;"
       id="path10168"
       sodipodi:cx="390"
       sodipodi:cy="532.36218"
       sodipodi:rx="30"
       sodipodi:ry="30"
       d="m 420,532.36218 a 30,30 0 1 1 -60,0 30,30 0 1 1 60,0 z" />
    <path
       sodipodi:type="arc"
       style="fill:none;stroke:#000000;stroke-width:0.3125;stroke-linecap:round;stroke-linejoin:round;stroke-miterlimit:4;stroke-opacity:1;stroke-dasharray:none;stroke-dashoffset:0"
       id="path9652"
       sodipodi:cx="330"
       sodipodi:cy="452.36218"
       sodipodi:rx="10"
       sodipodi:ry="10"
       d="m 340,452.36218 a 10,10 0 1 1 -20,0 10,10 0 1 1 20,0 z"
       transform="matrix(1.6,0,0,1.6,-149,-156.41731)" />
    <path
       transform="matrix(1.6,0,0,1.6,-245,-284.41731)"
       sodipodi:type="arc"
       style="fill:#999999;stroke:#000000;stroke-width:0.31250000000000000;stroke-linecap:round;stroke-linejoin:round;stroke-miterlimit:4;stroke-opacity:1;stroke-dasharray:none;stroke-dashoffset:0;"
       id="path10166"
       sodipodi:cx="390"
       sodipodi:cy="532.36218"
       sodipodi:rx="20"
       sodipodi:ry="20"
       d="m 410,532.36218 a 20,20 0 1 1 -40,0 20,20 0 1 1 40,0 z" />
    <path
       style="fill:#808080;fill-opacity:1;stroke:#000000;stroke-width:0.50000000000000000;stroke-linecap:round;stroke-linejoin:round;stroke-miterlimit:4;stroke-opacity:1;stroke-dasharray:none;stroke-dashoffset:0;"
       d="m 375.22477,582.52068 c -10.04239,-2.78613 -14.76425,-13.74822 -9.81072,-22.77619 1.32739,-2.4192 4.15733,-5.09007 6.67425,-6.29908 2.12176,-1.0192 4.99323,-1.74316 6.91389,-1.74316 1.92568,0 4.79415,0.72494 6.93188,1.75187 1.64606,0.79074 2.45156,1.38485 4.02576,2.96927 3.14586,3.16627 4.58411,6.62205 4.57713,10.99779 -0.0106,6.62123 -4.05198,12.28589 -10.47997,14.68928 -2.1068,0.78772 -6.70223,1.00116 -8.83222,0.41022 z"
       id="path10219"
       inkscape:connector-curvature="0" />
  </g>
  <g
     inkscape:label="Layer 1"
     inkscape:groupmode="layer"
     id="layer1"
     style="opacity:0.63035019;display:inline">
    <g
       style="display:inline"
       id="g4854"
       transform="translate(127.11589,244.337)">
      <path
         id="path4664"
         d="m 219.75,331.84375 c -0.5468,0 -0.99122,0.87934 -1,1.96875 -2.30884,0.16924 -4.57832,1.14082 -6.34375,2.90625 -3.90524,3.90524 -3.90524,10.21976 0,14.125 3.90524,3.90524 10.25101,3.90524 14.15625,0 3.90524,-3.90524 3.90524,-10.21976 0,-14.125 -1.62933,-1.62933 -3.69088,-2.57399 -5.8125,-2.84375 9e-5,-0.0109 0,-0.0204 0,-0.0312 0,-1.10457 -0.44772,-2 -1,-2 z"
         style="fill:#000000;stroke:#000000;stroke-width:1;stroke-miterlimit:4;stroke-opacity:1;stroke-dasharray:none;display:inline"
         inkscape:connector-curvature="0" />
      <path
         transform="translate(-1.0000027,-0.5)"
         d="m 217,337.5 c 0,0.27614 -0.22386,0.5 -0.5,0.5 -0.27614,0 -0.5,-0.22386 -0.5,-0.5 0,-0.27614 0.22386,-0.5 0.5,-0.5 0.27614,0 0.5,0.22386 0.5,0.5 z"
         sodipodi:ry="0.5"
         sodipodi:rx="0.5"
         sodipodi:cy="337.5"
         sodipodi:cx="216.5"
         id="path4689"
         style="fill:none;stroke:#000000;stroke-width:1;stroke-miterlimit:4;stroke-opacity:1;stroke-dasharray:none;display:inline"
         sodipodi:type="arc" />
      <path
         transform="translate(-2.7176194e-6,-0.5)"
         d="m 224,337.5 c 0,0.27614 -0.22386,0.5 -0.5,0.5 -0.27614,0 -0.5,-0.22386 -0.5,-0.5 0,-0.27614 0.22386,-0.5 0.5,-0.5 0.27614,0 0.5,0.22386 0.5,0.5 z"
         sodipodi:ry="0.5"
         sodipodi:rx="0.5"
         sodipodi:cy="337.5"
         sodipodi:cx="223.5"
         id="path4691"
         style="fill:none;stroke:#000000;stroke-width:1;stroke-miterlimit:4;stroke-opacity:1;stroke-dasharray:none;display:inline"
         sodipodi:type="arc" />
      <path
         sodipodi:nodetypes="ccc"
         inkscape:connector-curvature="0"
         id="path4710"
         d="m 209.99999,342 c 6.55657,-2.75392 10.9851,-1.74287 15,0 0.96996,-1.51404 1.87877,-3.28292 4,0"
         style="fill:none;stroke:#000000;stroke-width:1px;stroke-linecap:butt;stroke-linejoin:miter;stroke-opacity:1;display:inline" />
      <path
         inkscape:connector-curvature="0"
         id="path4770"
         d="m 224.53281,341.21706 c -0.0798,-0.0468 -0.65287,-0.26013 -1.27357,-0.47416 -3.79209,-1.30756 -7.48542,-1.29743 -11.52458,0.0316 -0.69063,0.22724 -1.27088,0.39968 -1.28946,0.38318 -0.15057,-0.13369 0.81035,-2.09891 1.44467,-2.95458 0.5334,-0.71951 1.5711,-1.73399 2.25501,-2.20453 1.15806,-0.79677 2.98838,-1.46448 4.39413,-1.60299 0.75607,-0.0745 0.72711,-0.0416 0.80676,-0.91767 0.0436,-0.47993 0.25631,-1.00804 0.40593,-1.00804 0.17924,0 0.37802,0.58274 0.41656,1.22114 l 0.0387,0.64161 0.86379,0.15803 c 2.73706,0.50075 5.01094,2.04729 6.473,4.40251 0.29645,0.47755 0.56304,1.0041 0.56304,1.11208 0,0.0223 -0.16064,-0.0543 -0.35698,-0.17012 -0.24305,-0.14341 -0.5167,-0.21063 -0.85744,-0.21063 -0.65162,0 -1.14759,0.322 -1.6979,1.10234 -0.4363,0.61868 -0.43906,0.62072 -0.66169,0.49021 z m -8.3141,-3.4904 c 0.76393,-0.76393 0.0283,-1.99442 -1.02485,-1.71417 -0.44321,0.11795 -0.70636,0.49785 -0.70636,1.01974 0,0.3578 0.051,0.47886 0.29999,0.7114 0.43138,0.40297 1.01823,0.39601 1.43122,-0.017 l 0,0 z m 7.89243,0.12602 c 1.06062,-0.85914 -0.0562,-2.43299 -1.20415,-1.69694 -0.54516,0.34953 -0.5713,1.25894 -0.048,1.67055 0.31447,0.24736 0.96251,0.26102 1.25217,0.0264 z"
         style="fill:#b3b3b3;fill-opacity:1;stroke:#000000;stroke-width:0.09659091000000000;stroke-miterlimit:4;stroke-opacity:1;stroke-dasharray:none" />
    </g>
  </g>
  <g
     inkscape:groupmode="layer"
     id="layer8"
     inkscape:label="Layer#2"
     style="display:inline"
     sodipodi:insensitive="true">
    <path
       style="fill:none;stroke:#000000;stroke-width:1px;stroke-linecap:butt;stroke-linejoin:miter;stroke-opacity:1;marker-end:url(#Arrow1Mend)"
       d="M 379.01664,567.41175 356.93007,588.2713"
       id="path12466"
       inkscape:connector-curvature="0"
       sodipodi:nodetypes="cc" />
    <path
       style="fill:none;stroke:#000000;stroke-width:1px;stroke-linecap:butt;stroke-linejoin:miter;stroke-opacity:1;marker-end:url(#Arrow1Mend)"
       d="m 378.74397,567.54809 -40.76474,20.85955"
       id="path12668"
       inkscape:connector-curvature="0"
       sodipodi:nodetypes="cc" />
  </g>
  <g
     inkscape:groupmode="layer"
     id="layer7"
     inkscape:label="Layer#1"
     style="display:inline">
    <g
       id="use10429"
       transform="matrix(0.27539557,0.04430198,-0.04430198,0.27539557,282.2024,376.14867)"
       style="stroke-width:1.79252481;stroke-miterlimit:4;stroke-dasharray:none;display:inline">
      <path
         inkscape:connector-curvature="0"
         style="fill:#ffffff;fill-opacity:1;stroke:#000000;stroke-width:1.79252481;stroke-linecap:round;stroke-linejoin:round;stroke-miterlimit:4;stroke-opacity:1;stroke-dasharray:none;stroke-dashoffset:0"
         d="m 459.19819,597.82426 0,10 -20,0 0,35 25,0 0,-35 0,-10 -5,0 z"
         id="path10433" />
      <path
         style="fill:none;stroke:#000000;stroke-width:1.79252481;stroke-linecap:round;stroke-linejoin:miter;stroke-miterlimit:4;stroke-opacity:1;stroke-dasharray:none"
         d="m 444.19819,622.81144 0,15"
         id="path10435"
         inkscape:connector-curvature="0" />
      <path
         style="fill:none;stroke:#000000;stroke-width:1.79252481;stroke-linecap:round;stroke-linejoin:miter;stroke-miterlimit:4;stroke-opacity:1;stroke-dasharray:none"
         d="m 459.19819,637.81144 -15,0"
         id="path10437"
         inkscape:connector-curvature="0" />
      <path
         style="fill:none;stroke:#000000;stroke-width:1.79252481;stroke-linecap:round;stroke-linejoin:miter;stroke-miterlimit:4;stroke-opacity:1;stroke-dasharray:none"
         d="m 459.19819,622.81144 0,15"
         id="path10439"
         inkscape:connector-curvature="0" />
      <path
         style="fill:none;stroke:#000000;stroke-width:1.79252481;stroke-linecap:round;stroke-linejoin:miter;stroke-miterlimit:4;stroke-opacity:1;stroke-dasharray:none"
         d="m 444.19819,622.81144 15,0"
         id="path10441"
         inkscape:connector-curvature="0" />
      <path
         style="fill:none;stroke:#000000;stroke-width:1.79252481;stroke-linecap:round;stroke-linejoin:miter;stroke-miterlimit:4;stroke-opacity:1;stroke-dasharray:none"
         d="m 444.19819,627.81144 15,0"
         id="path10443"
         inkscape:connector-curvature="0" />
      <path
         style="fill:none;stroke:#000000;stroke-width:1.79252481;stroke-linecap:round;stroke-linejoin:miter;stroke-miterlimit:4;stroke-opacity:1;stroke-dasharray:none"
         d="m 444.19819,632.81144 15,0"
         id="path10445"
         inkscape:connector-curvature="0" />
      <path
         style="fill:none;stroke:#000000;stroke-width:1.79252481;stroke-linecap:round;stroke-linejoin:miter;stroke-miterlimit:4;stroke-opacity:1;stroke-dasharray:none"
         d="m 449.19819,622.81144 0,15"
         id="path10447"
         inkscape:connector-curvature="0" />
      <path
         style="fill:none;stroke:#000000;stroke-width:1.79252481;stroke-linecap:round;stroke-linejoin:miter;stroke-miterlimit:4;stroke-opacity:1;stroke-dasharray:none"
         d="m 454.19819,622.81144 0,15"
         id="path10449"
         inkscape:connector-curvature="0" />
      <path
         style="fill:none;stroke:#000000;stroke-width:1.79252481;stroke-linecap:round;stroke-linejoin:miter;stroke-miterlimit:4;stroke-opacity:1;stroke-dasharray:none"
         d="m 444.19819,622.81144 15,0 0,-10"
         id="path10451"
         inkscape:connector-curvature="0" />
      <path
         style="fill:none;stroke:#000000;stroke-width:1.79252481;stroke-linecap:round;stroke-linejoin:miter;stroke-miterlimit:4;stroke-opacity:1;stroke-dasharray:none"
         d="m 459.19819,612.81144 -15,0 0,10"
         id="path10453"
         inkscape:connector-curvature="0" />
      <g
         id="g10455"
         transform="matrix(0,-1,-1,0,1022.1083,1088.9352)"
         style="stroke-width:1.79252481;stroke-miterlimit:4;stroke-dasharray:none">
        <path
           sodipodi:open="true"
           sodipodi:end="1.2403681"
           sodipodi:start="0"
           d="m 495,582.36218 a 10,10 0 0 1 -6.75552,9.45904"
           sodipodi:ry="10"
           sodipodi:rx="10"
           sodipodi:cy="582.36218"
           sodipodi:cx="485"
           id="path10457"
           style="fill:none;stroke:#000000;stroke-width:1.79252481;stroke-linecap:round;stroke-linejoin:round;stroke-miterlimit:4;stroke-opacity:1;stroke-dasharray:none;stroke-dashoffset:0"
           sodipodi:type="arc" />
        <path
           sodipodi:open="true"
           sodipodi:end="1.2507472"
           sodipodi:start="0"
           d="m 490,582.36218 a 5,5 0 0 1 -3.42693,4.7461"
           sodipodi:ry="5"
           sodipodi:rx="5"
           sodipodi:cy="582.36218"
           sodipodi:cx="485"
           id="path10459"
           style="fill:none;stroke:#000000;stroke-width:1.79252481;stroke-linecap:round;stroke-linejoin:round;stroke-miterlimit:4;stroke-opacity:1;stroke-dasharray:none;stroke-dashoffset:0"
           sodipodi:type="arc" />
      </g>
    </g>
  </g>
</svg>
